<?xml version="1.0" encoding="UTF-8" standalone="no"?>
<!DOCTYPE svg PUBLIC "-//W3C//DTD SVG 1.1//EN"
 "http://www.w3.org/Graphics/SVG/1.1/DTD/svg11.dtd">
<!-- Generated by graphviz version 2.43.0 (0)
 -->
<!-- Title: %3 Pages: 1 -->
<svg width="262pt" height="410pt"
 viewBox="0.00 0.00 262.40 410.35" xmlns="http://www.w3.org/2000/svg" xmlns:xlink="http://www.w3.org/1999/xlink">
<g id="graph0" class="graph" transform="scale(1 1) rotate(0) translate(4 406.35)">
<title>%3</title>
<polygon fill="white" stroke="transparent" points="-4,4 -4,-406.35 258.4,-406.35 258.4,4 -4,4"/>
<!-- GF1 -->
<g id="node1" class="node">
<title>GF1</title>
<polygon fill="none" stroke="black" points="41,-284.23 0,-284.23 0,-243.23 41,-243.23 41,-284.23"/>
<text text-anchor="middle" x="20.5" y="-260.03" font-family="Times,serif" font-size="14.00">GF1</text>
</g>
<!-- mnode_GF1_GM1 -->
<g id="node12" class="node">
<title>mnode_GF1_GM1</title>
<ellipse fill="black" stroke="black" cx="88.5" cy="-197.47" rx="0.36" ry="0.36"/>
</g>
<!-- GF1&#45;&gt;mnode_GF1_GM1 -->
<g id="edge7" class="edge">
<title>GF1&#45;&gt;mnode_GF1_GM1</title>
<path fill="none" stroke="black" d="M40.06,-243.04C43.19,-239.94 46.42,-236.78 49.5,-233.83 65.99,-218.01 87.13,-199.06 88.44,-197.89"/>
</g>
<!-- GM1 -->
<g id="node2" class="node">
<title>GM1</title>
<ellipse fill="lightgrey" stroke="black" cx="88.5" cy="-263.73" rx="29.8" ry="29.8"/>
<text text-anchor="middle" x="88.5" y="-260.03" font-family="Times,serif" font-size="14.00">GM1</text>
</g>
<!-- GM1&#45;&gt;mnode_GF1_GM1 -->
<g id="edge8" class="edge">
<title>GM1&#45;&gt;mnode_GF1_GM1</title>
<path fill="none" stroke="black" d="M88.5,-233.7C88.5,-216.96 88.5,-198.99 88.5,-197.89"/>
</g>
<!-- GF2 -->
<g id="node3" class="node">
<title>GF2</title>
<polygon fill="none" stroke="black" points="177,-284.23 136,-284.23 136,-243.23 177,-243.23 177,-284.23"/>
<text text-anchor="middle" x="156.5" y="-260.03" font-family="Times,serif" font-size="14.00">GF2</text>
</g>
<!-- mnode_GF2_GM2 -->
<g id="node13" class="node">
<title>mnode_GF2_GM2</title>
<ellipse fill="black" stroke="black" cx="156.5" cy="-197.47" rx="0.36" ry="0.36"/>
</g>
<!-- GF2&#45;&gt;mnode_GF2_GM2 -->
<g id="edge10" class="edge">
<title>GF2&#45;&gt;mnode_GF2_GM2</title>
<path fill="none" stroke="black" d="M156.5,-242.91C156.5,-224.42 156.5,-199.45 156.5,-197.91"/>
</g>
<!-- GM2 -->
<g id="node4" class="node">
<title>GM2</title>
<ellipse fill="none" stroke="black" cx="224.5" cy="-263.73" rx="29.8" ry="29.8"/>
<text text-anchor="middle" x="224.5" y="-260.03" font-family="Times,serif" font-size="14.00">GM2</text>
</g>
<!-- GM2&#45;&gt;mnode_GF2_GM2 -->
<g id="edge11" class="edge">
<title>GM2&#45;&gt;mnode_GF2_GM2</title>
<path fill="none" stroke="black" d="M203.36,-242.55C184.02,-224.1 158.17,-199.43 156.58,-197.91"/>
</g>
<!-- M1 -->
<g id="node5" class="node">
<title>M1</title>
<ellipse fill="none" stroke="black" cx="91.5" cy="-137.71" rx="23.3" ry="23.3"/>
<text text-anchor="middle" x="91.5" y="-134.01" font-family="Times,serif" font-size="14.00">M1</text>
</g>
<!-- mnode_F1_M1 -->
<g id="node14" class="node">
<title>mnode_F1_M1</title>
<ellipse fill="black" stroke="black" cx="120.5" cy="-77.96" rx="0.36" ry="0.36"/>
</g>
<!-- M1&#45;&gt;mnode_F1_M1 -->
<g id="edge14" class="edge">
<title>M1&#45;&gt;mnode_F1_M1</title>
<path fill="none" stroke="black" d="M101.64,-116.29C109.74,-99.98 119.85,-79.63 120.47,-78.38"/>
</g>
<!-- F1 -->
<g id="node6" class="node">
<title>F1</title>
<polygon fill="none" stroke="black" points="172.5,-155.71 136.5,-155.71 136.5,-119.71 172.5,-119.71 172.5,-155.71"/>
<text text-anchor="middle" x="154.5" y="-134.01" font-family="Times,serif" font-size="14.00">F1</text>
</g>
<!-- F1&#45;&gt;mnode_F1_M1 -->
<g id="edge13" class="edge">
<title>F1&#45;&gt;mnode_F1_M1</title>
<path fill="none" stroke="black" d="M144.48,-119.51C134.77,-102.82 121.37,-79.81 120.54,-78.39"/>
</g>
<!-- C1 -->
<g id="node7" class="node">
<title>C1</title>
<ellipse fill="none" stroke="black" cx="63.5" cy="-20.8" rx="20.6" ry="20.6"/>
<text text-anchor="middle" x="63.5" y="-17.1" font-family="Times,serif" font-size="14.00">C1</text>
</g>
<!-- C2 -->
<g id="node8" class="node">
<title>C2</title>
<polygon fill="lightgrey" stroke="black" points="138.5,-38.8 102.5,-38.8 102.5,-2.8 138.5,-2.8 138.5,-38.8"/>
<text text-anchor="middle" x="120.5" y="-17.1" font-family="Times,serif" font-size="14.00">C2</text>
</g>
<!-- C3 -->
<g id="node9" class="node">
<title>C3</title>
<polygon fill="none" stroke="black" points="192.5,-38.8 156.5,-38.8 156.5,-2.8 192.5,-2.8 192.5,-38.8"/>
<text text-anchor="middle" x="174.5" y="-17.1" font-family="Times,serif" font-size="14.00">C3</text>
</g>
<!-- mnode_0_0 -->
<g id="node10" class="node">
<title>mnode_0_0</title>
<ellipse fill="black" stroke="black" cx="122.5" cy="-329.99" rx="0.36" ry="0.36"/>
</g>
<!-- mnode_0_0&#45;&gt;GF1 -->
<g id="edge3" class="edge">
<title>mnode_0_0&#45;&gt;GF1</title>
<path fill="none" stroke="black" d="M122.37,-329.58C119.79,-328.69 78,-314.01 49.5,-293.63 48.31,-292.77 47.12,-291.87 45.94,-290.93"/>
<polygon fill="black" stroke="black" points="48.24,-288.29 38.41,-284.35 43.63,-293.56 48.24,-288.29"/>
</g>
<!-- mnode_0_0&#45;&gt;GM1 -->
<g id="edge4" class="edge">
<title>mnode_0_0&#45;&gt;GM1</title>
<path fill="none" stroke="black" d="M122.48,-329.58C122,-328.66 114.59,-314.53 106.82,-299.69"/>
<polygon fill="black" stroke="black" points="109.73,-297.71 101.99,-290.47 103.53,-300.95 109.73,-297.71"/>
</g>
<!-- mnode_0_0&#45;&gt;GF2 -->
<g id="edge5" class="edge">
<title>mnode_0_0&#45;&gt;GF2</title>
<path fill="none" stroke="black" d="M122.52,-329.58C123.07,-328.54 132.6,-310.34 141.43,-293.49"/>
<polygon fill="black" stroke="black" points="144.66,-294.86 146.2,-284.38 138.46,-291.62 144.66,-294.86"/>
</g>
<!-- mnode_0_0&#45;&gt;GM2 -->
<g id="edge6" class="edge">
<title>mnode_0_0&#45;&gt;GM2</title>
<path fill="none" stroke="black" d="M122.61,-329.57C124.79,-328.5 160.08,-310.99 186.5,-293.63 188.68,-292.19 190.9,-290.68 193.12,-289.11"/>
<polygon fill="black" stroke="black" points="195.53,-291.69 201.56,-282.98 191.41,-286.03 195.53,-291.69"/>
</g>
<!-- 0 -->
<g id="node11" class="node">
<title>0</title>
<ellipse fill="none" stroke="black" cx="122.5" cy="-384.35" rx="27" ry="18"/>
<text text-anchor="middle" x="122.5" y="-380.65" font-family="Times,serif" font-size="14.00">0</text>
</g>
<!-- 0&#45;&gt;mnode_0_0 -->
<g id="edge1" class="edge">
<title>0&#45;&gt;mnode_0_0</title>
<path fill="none" stroke="black" d="M116.17,-366.58C114.81,-351.54 116.75,-331.64 121.98,-330.41"/>
</g>
<!-- 0&#45;&gt;mnode_0_0 -->
<g id="edge2" class="edge">
<title>0&#45;&gt;mnode_0_0</title>
<path fill="none" stroke="black" d="M128.83,-366.58C130.19,-351.54 128.25,-331.64 123.02,-330.41"/>
</g>
<!-- mnode_GF1_GM1&#45;&gt;M1 -->
<g id="edge9" class="edge">
<title>mnode_GF1_GM1&#45;&gt;M1</title>
<path fill="none" stroke="black" d="M88.51,-196.94C88.59,-195.42 89.18,-183.78 89.83,-171.3"/>
<polygon fill="black" stroke="black" points="93.32,-171.46 90.34,-161.29 86.33,-171.1 93.32,-171.46"/>
</g>
<!-- mnode_GF2_GM2&#45;&gt;F1 -->
<g id="edge12" class="edge">
<title>mnode_GF2_GM2&#45;&gt;F1</title>
<path fill="none" stroke="black" d="M156.49,-196.94C156.43,-195.21 155.92,-180.32 155.44,-166.03"/>
<polygon fill="black" stroke="black" points="158.93,-165.8 155.09,-155.93 151.93,-166.04 158.93,-165.8"/>
</g>
<!-- mnode_F1_M1&#45;&gt;C1 -->
<g id="edge15" class="edge">
<title>mnode_F1_M1&#45;&gt;C1</title>
<path fill="none" stroke="black" d="M120.34,-77.44C118.44,-75.58 100.4,-57.92 85.15,-42.99"/>
<polygon fill="black" stroke="black" points="87.56,-40.45 77.97,-35.96 82.66,-45.46 87.56,-40.45"/>
</g>
<!-- mnode_F1_M1&#45;&gt;C2 -->
<g id="edge16" class="edge">
<title>mnode_F1_M1&#45;&gt;C2</title>
<path fill="none" stroke="black" d="M120.5,-77.44C120.5,-75.83 120.5,-62.44 120.5,-49.19"/>
<polygon fill="black" stroke="black" points="124,-48.83 120.5,-38.83 117,-48.83 124,-48.83"/>
</g>
<!-- mnode_F1_M1&#45;&gt;C3 -->
<g id="edge17" class="edge">
<title>mnode_F1_M1&#45;&gt;C3</title>
<path fill="none" stroke="black" d="M120.65,-77.44C122.33,-75.71 137.3,-60.24 151.02,-46.06"/>
<polygon fill="black" stroke="black" points="153.57,-48.45 158.01,-38.83 148.54,-43.59 153.57,-48.45"/>
</g>
</g>
</svg>
